<svg width="214" height="203" viewBox="0 0 214 203" xmlns="http://www.w3.org/2000/svg"><title>Signature Luis Logo</title><g fill="none" fill-rule="evenodd" stroke="#FFF"><path d="M3.602 199.76h206.436V3.84H3.602v195.92z" stroke-width="6"/><path d="M135.062 46.304c-.226 39.948.888 79.92-1.413 119.83-.394 6.818-.85 13.524-.85 20.358 0 2.642.566 10.56.566 7.917 0-21.31-10.18-43.32-14.397-64.44-4.07-20.365-8.663-40.527-9.883-61.07-.484-8.153-.845-16.17-.845-24.315 0-2.4 1.128-9.565 1.128-7.164 0 29.8 12.438 59.072 14.962 88.78.24 2.826-.132 44.46 0 44.46 6.506 0-1.045-8.66-1.692-12.982-2.675-17.857-1.128-10.72-2.54-30.537-1.296-18.16-2.497-70.194-3.39-70.49-.276-.094-4.166 16.265-4.518 28.91-.965 34.786 3.106 69.725 3.106 104.233 0 9.04.665-18.09 0-27.118-2.344-31.83-10.544-63.36-15.807-94.997-3.146-18.918-2.042-13.04-4.235-31.1-.54-4.45-.845-17.848-.845-13.383 0 26.185 1.3 51.997 5.925 78.063 10.452 58.91 1.49-4.752 5.93 46.368.868 10 2.443 19.97 3.387 29.968 2.394 25.357 4.85 23.53-1.41-1.13-6.21-24.47-15.433-48.517-22.02-72.945-.637-2.36-1.54-21.205-5.082-23.56-.634-.422-.848 1.976-.848 17.15 0 19.327 1.236 37.9 4.236 57.112.62 3.96 1.437 7.908 1.975 11.875.102.75-1.13 2.262 0 2.262 2.196 0-9.316-105.33-9.316-115.92 0-6.778-.62 13.57 0 20.334 1.27 13.84 5.538 27.572 8.472 41.277 1.272 5.95 3.07 23.924 3.07 17.914 0-1.395-2.967-16.195-3.39-15.833-13.42 11.507-7.423 41.28-13.548 39.962-2.862-.616.493-27.41.844-30.467.42-3.637.068-13.776 3.106-10.745 7.298 7.282-4.03 23.65-5.328 29.97-.587 2.857-1.174 11.216-2.54 8.48-2.71-5.418-.716-20.832-6.777-24.88-.156-.102-2.385 10.565-3.67 16.59-.794 3.717-6.934.253-10.162 1.696-3.23 1.443-.374 10.228-1.413 7.727-10.988-26.436 5.472 17.045 65.496 7.328 29.403-4.76 60.772-25.53 76.222-41.842 24.828-26.215 42.19-102.27-21.456-114.412-8.183-1.56-16.937-1.13-25.406-1.696-32.47 5.897-41.017 27.44-46.018 47.686-9.748 39.46-3.385 82.06-3.385 121.95v18.662c0 2.443-2.534 9.09 0 7.328 10.167-7.07 17.097-18.976 22.866-27.706 4.21-6.37 7.573-12.698 11.01-19.228.42-.8 2.332-2.7 1.13-2.428-37.943 8.624-33.073 14.625-87.23 19.792-6.024-.25-12.302.432-18.07-.753-28.26-5.804-16.87-34.277-2.54-42.975 33.536-20.357 150.24-37.877 189.706-29.24" stroke-width="2"/></g></svg>